<svg width="141" height="137" viewBox="0 0 141 137" fill="none" xmlns="http://www.w3.org/2000/svg">
<path d="M127.255 54.5202C126.89 50.8255 123.855 47.8487 120.148 47.5426C117.742 47.342 115.532 48.2393 113.978 49.7858C113.803 49.9599 113.661 50.1605 113.539 50.3716L112.032 52.9843V52.9948L103.884 67.1137L100.067 61.3712L96.9523 56.6842L95.6463 54.7102L95.6358 54.6997C94.224 53.1479 92.1831 52.1767 89.9148 52.1767H74.3962C82.6287 49.7383 88.6405 42.1325 88.6405 33.1175C88.6458 22.1391 79.7259 13.2402 68.7281 13.2402C57.7302 13.2402 48.8103 22.1391 48.8103 33.1175C48.8103 42.1325 54.8221 49.7383 63.0599 52.1767H50.2379C49.7515 52.1767 49.2756 52.219 48.8156 52.3087C47.1501 52.6148 45.6696 53.4593 44.5698 54.6469L43.1792 56.7476L40.1548 61.3026L36.4325 66.9079L27.7664 51.6437L27.5337 51.2372V51.2267C27.2112 50.7042 26.8305 50.2186 26.4022 49.791L25.2919 48.8621C24.0282 47.9859 22.4948 47.474 20.8399 47.474C16.5095 47.474 13.0039 50.9733 13.0039 55.2908C13.0039 56.452 13.2577 57.5551 13.7177 58.5474L14.6853 60.1256L27.2852 80.6943L31.3883 87.218L31.9223 88.0678C33.2336 89.8571 35.3486 91.0235 37.7438 91.0235C39.6049 91.0235 41.3022 90.3215 42.5765 89.1656L42.587 89.1551L43.1369 88.5956L43.1475 88.585C43.7027 88.0203 44.131 87.35 44.3953 86.6058L48.8209 74.3817V124.08H88.6511V73.5689L94.2663 83.8189L96.524 87.9411L97.1215 88.5375L97.1427 88.5586L97.7613 89.1867L97.7719 89.1973C99.0461 90.3374 100.733 91.0288 102.573 91.0288C104.957 91.0288 107.072 89.8729 108.384 88.0889L108.939 87.2022L112.973 80.7893L125.351 60.4845L126.784 58.141C127.212 57.0431 127.397 55.8133 127.27 54.536L127.255 54.5202Z" fill="#333333"/>
</svg>
