<svg width="141" height="137" viewBox="0 0 141 137" fill="none" xmlns="http://www.w3.org/2000/svg">
<path d="M16.3615 133.86C15.7554 125.881 13.4489 81.6142 36.2969 75.6378L40.6204 74.5064L36.4054 73.0191C29.8025 70.6924 25.3613 64.3875 25.3613 57.3299C25.3613 48.1645 32.7512 40.71 41.837 40.71C45.6676 40.71 49.3444 42.0421 52.2886 44.4829C51.2484 46.9829 50.7238 49.6381 50.7238 52.3845C50.7238 57.4576 52.5464 62.2616 55.875 66.0208C53.8896 69.2827 50.864 71.7508 47.2731 73.0145L43.0536 74.5018L47.3816 75.6332C48.96 76.0438 50.4706 76.6597 51.8952 77.4672C45.8666 84.9263 42.2395 96.7104 41.1043 112.532C40.4169 122.126 40.8963 130.534 41.1496 133.855H16.3615V133.86Z" fill="#333333"/>
<path d="M101.127 133.86C101.353 130.575 101.771 122.295 101.064 112.81C99.8953 97.1118 96.3478 85.3597 90.5111 77.8322C92.0714 76.8468 93.7606 76.1122 95.5388 75.6378L99.7886 74.5064L95.6455 73.0191C91.9114 71.6824 88.7329 68.9177 86.8125 65.3638C89.7331 61.7095 91.3335 57.1337 91.3335 52.3845C91.3335 49.8708 90.8934 47.4209 90.031 45.0942C93.0271 42.2611 96.8857 40.71 100.989 40.71C109.92 40.71 117.183 48.1645 117.183 57.3299C117.183 64.3875 112.822 70.6924 106.332 73.0191L102.185 74.5064L106.439 75.6378C128.932 81.6096 126.941 125.858 126.39 133.86H101.131H101.127Z" fill="#333333"/>
<path d="M77.0441 70.7981C84.3848 68.2024 89.6526 61.1461 89.6526 52.8373C89.6526 42.3276 81.2305 33.8101 70.8386 33.8101C60.4466 33.8101 52.0245 42.3276 52.0245 52.8373C52.0245 61.1461 57.2923 68.2069 64.633 70.8026C36.7463 78.1131 42.6467 135.24 42.6467 135.24H99.4253C99.4253 135.24 104.98 78.1131 77.0441 70.8026V70.7981Z" fill="#333333"/>
<path d="M108.92 32.4299C109.579 27.7441 105.856 21.982 101.688 21.24C105.856 21.982 110.984 17.791 111.642 13.1099C110.984 17.7956 114.707 23.5577 118.875 24.2997C114.707 23.5577 109.579 27.7487 108.92 32.4299Z" fill="#333333"/>
<path d="M77.4727 19.3198C78.2146 15.3078 75.8108 10.1367 72.8125 9.28762C75.8108 10.1367 79.7897 6.77622 80.5273 2.75977C79.7854 6.77172 82.1892 11.9428 85.1875 12.7919C82.1892 11.9428 78.2103 15.3033 77.4727 19.3198Z" fill="#333333"/>
<path d="M26.4002 39.56C25.4936 35.5434 21.1663 31.7849 18 32.2604C21.1663 31.7849 23.5689 27.0121 22.6623 23C23.5689 27.0166 27.8962 30.7751 31.0625 30.2996C27.8962 30.7751 25.4936 35.5479 26.4002 39.56Z" fill="#333333"/>
</svg>
