<svg width="141" height="137" viewBox="0 0 141 137" fill="none" xmlns="http://www.w3.org/2000/svg">
<g clip-path="url(#clip0_778_157)">
<path d="M87.745 71.27H86.3669C85.571 71.27 84.9258 71.9565 84.9258 72.8033V79.8038C84.9258 80.6506 85.571 81.3371 86.3669 81.3371H87.745C88.5409 81.3371 89.1862 80.6506 89.1862 79.8038V72.8033C89.1862 71.9565 88.5409 71.27 87.745 71.27Z" stroke="#333333" stroke-width="1.62" stroke-miterlimit="10"/>
<path d="M141 126.427H93.0879" stroke="#333333" stroke-width="3" stroke-miterlimit="10"/>
<path d="M47.427 126.427H0" stroke="#333333" stroke-width="3" stroke-miterlimit="10"/>
<path d="M117.296 60.1084L106.859 79.6075L105.728 77.4857C107.126 77.5218 116.937 77.7748 118.068 77.8058L116.67 79.1739L103.064 92.4469L102.725 92.0752L115.588 77.9865L116.151 79.401C114.162 79.5611 104.894 80.3148 103.108 80.4645C103.37 80.0928 116.107 60.9963 116.893 59.8296L117.301 60.1084H117.296Z" fill="#333333"/>
<path d="M12.8532 66.4585L27.8082 82.2819L25.5858 82.8859C25.9643 81.5333 28.7884 71.4456 29.0844 70.3769L29.9723 72.0806L42.9136 96.954L42.4914 97.2122L28.6282 72.9066L30.05 72.6898C29.6763 74.7806 27.9343 84.4863 27.5995 86.3604C27.3278 85.9938 13.3433 67.9144 12.4941 66.8044L12.8532 66.4585Z" fill="#333333"/>
<path d="M111.788 48.601C120.814 48.601 128.131 40.8162 128.131 31.2133C128.131 21.6104 120.814 13.8257 111.788 13.8257C102.762 13.8257 95.4453 21.6104 95.4453 31.2133C95.4453 40.8162 102.762 48.601 111.788 48.601Z" stroke="#333333" stroke-width="2" stroke-miterlimit="10"/>
<path d="M66.0986 36.5585C75.1245 36.5585 82.4414 28.7738 82.4414 19.1708C82.4414 9.56791 75.1245 1.7832 66.0986 1.7832C57.0728 1.7832 49.7559 9.56791 49.7559 19.1708C49.7559 28.7738 57.0728 36.5585 66.0986 36.5585Z" stroke="#333333" stroke-width="2" stroke-miterlimit="10"/>
<path d="M25.4951 48.601C34.5209 48.601 41.8378 40.8162 41.8378 31.2133C41.8378 21.6104 34.5209 13.8257 25.4951 13.8257C16.4692 13.8257 9.15234 21.6104 9.15234 31.2133C9.15234 40.8162 16.4692 48.601 25.4951 48.601Z" stroke="#333333" stroke-width="2" stroke-miterlimit="10"/>
<path d="M54.2196 71.27H52.8415C52.0456 71.27 51.4004 71.9565 51.4004 72.8033V79.8038C51.4004 80.6506 52.0456 81.3371 52.8415 81.3371H54.2196C55.0155 81.3371 55.6608 80.6506 55.6608 79.8038V72.8033C55.6608 71.9565 55.0155 71.27 54.2196 71.27Z" stroke="#333333" stroke-width="1.62" stroke-miterlimit="10"/>
<path d="M53.2891 71.2697C53.2891 48.957 87.3672 48.957 87.3672 71.2697" stroke="#333333" stroke-width="2" stroke-miterlimit="10"/>
<path d="M112.585 35.7614C115.785 35.7614 118.378 33.0016 118.378 29.5973C118.378 26.1929 115.785 23.4331 112.585 23.4331C109.385 23.4331 106.791 26.1929 106.791 29.5973C106.791 33.0016 109.385 35.7614 112.585 35.7614Z" stroke="#333333" stroke-width="1.61" stroke-miterlimit="10"/>
<path d="M101.637 44.8321C106.644 31.2906 117.616 32.6948 118.183 47.4186" stroke="#333333" stroke-width="1.61" stroke-miterlimit="10"/>
<path d="M66.3015 23.569C69.5013 23.569 72.0952 20.8092 72.0952 17.4049C72.0952 14.0005 69.5013 11.2407 66.3015 11.2407C63.1017 11.2407 60.5078 14.0005 60.5078 17.4049C60.5078 20.8092 63.1017 23.569 66.3015 23.569Z" stroke="#333333" stroke-width="1.61" stroke-miterlimit="10"/>
<path d="M57.5488 34.1683C60.6543 19.997 71.7032 19.6872 74.275 34.1683" stroke="#333333" stroke-width="1.61" stroke-miterlimit="10"/>
<path d="M25.5613 35.5964C28.7611 35.5964 31.355 32.8366 31.355 29.4322C31.355 26.0278 28.7611 23.2681 25.5613 23.2681C22.3615 23.2681 19.7676 26.0278 19.7676 29.4322C19.7676 32.8366 22.3615 35.5964 25.5613 35.5964Z" stroke="#333333" stroke-width="1.61" stroke-miterlimit="10"/>
<path d="M20.5312 47.8418C20.5992 33.2884 31.3084 30.3767 36.8352 43.8872" stroke="#333333" stroke-width="1.61" stroke-miterlimit="10"/>
<path d="M73.508 92.7512C80.2237 91.1715 85.2459 84.8008 85.2459 77.186C85.2459 68.3786 78.535 61.2388 70.2569 61.2388C61.9788 61.2388 55.268 68.3786 55.268 77.186C55.268 84.8163 60.3096 91.1921 67.0398 92.7615C40.5653 95.1054 44.3647 126.427 44.3647 126.427H47.6692V106.153C47.6692 104.775 48.7173 103.66 50.0129 103.66H90.9959C92.2915 103.66 93.3396 104.775 93.3396 106.153V126.427H98.386C98.386 126.427 100.385 95.0279 73.5129 92.7512H73.508Z" fill="#333333"/>
<path d="M93.0884 105.896V134.249C93.0884 135.627 92.0403 136.742 90.7496 136.742H49.7666C48.4758 136.742 47.4277 135.627 47.4277 134.249V105.896C47.4277 104.522 48.4758 103.407 49.7666 103.407H90.7496C92.0403 103.407 93.0884 104.522 93.0884 105.896Z" stroke="#333333" stroke-width="2" stroke-miterlimit="10"/>
</g>
<defs>
<clipPath id="clip0_778_157">
<rect width="141" height="137" fill="white"/>
</clipPath>
</defs>
</svg>
