<svg width="141" height="137" viewBox="0 0 141 137" fill="none" xmlns="http://www.w3.org/2000/svg">
<path d="M108.57 27.2351C107.131 27.2351 105.687 27.8481 105.687 27.8481C102.729 29.53 96.9846 33.0997 93.8151 32.5681C89.6829 31.8791 80.1691 31.8031 72.1589 33.5554C71.6451 33.2137 71.1313 32.8665 70.6229 32.5518C69.076 31.6024 67.5562 30.794 66.0471 30.1918C64.5868 29.6059 63.1265 29.2044 61.6067 29.1285C59.3134 28.9278 57.0958 28.8518 55.0568 28.8518C51.9739 28.8572 49.3453 29.0308 47.3928 29.3509H47.3603C47.2089 29.3672 46.4408 29.237 45.5376 28.9006C44.1584 28.4124 42.3952 27.5606 40.7672 26.6926C39.1284 25.8191 37.6248 24.9511 36.543 24.3652C36.013 24.0776 35.4234 23.9474 34.8231 23.98C25.742 24.4737 18.4782 28.0272 13.5293 32.7525C8.59119 37.4996 5.82737 43.3479 5.79492 48.8653C5.79492 50.5472 6.06535 52.2018 6.66571 53.7534C7.2228 55.202 8.09359 56.5474 9.23482 57.6704C9.44034 57.9308 9.62424 58.137 9.82436 58.3486C10.3057 58.8423 10.8844 59.3685 11.5659 59.987C13.5834 61.8207 16.477 64.4465 18.3592 66.8119C20.2252 69.1501 21.4313 71.2877 22.4265 73.1865C22.9241 74.1359 23.373 75.031 23.8435 75.8828C24.0383 76.2354 24.2492 76.5826 24.4655 76.9244L24.1302 77.2554C22.9457 78.4164 22.2859 79.968 22.2642 81.6335C22.248 83.2936 22.8754 84.8669 24.0328 86.055C25.2119 87.2594 26.7858 87.9267 28.4679 87.9267C29.647 87.9267 30.772 87.5849 31.7564 86.9665C31.1019 87.9593 30.7341 89.1148 30.7233 90.3301C30.7071 91.9848 31.3345 93.5581 32.492 94.7462C33.6656 95.956 35.245 96.6179 36.927 96.6179C38.2522 96.6179 39.5015 96.1839 40.5562 95.4135C38.6362 97.8331 38.7389 101.36 40.9511 103.627C42.1247 104.832 43.6987 105.493 45.3807 105.493C47.0087 105.493 48.5556 104.864 49.7239 103.709L50.8705 102.569C50.3891 103.454 50.1025 104.43 50.0917 105.461C50.0754 107.121 50.7028 108.694 51.8603 109.877C53.034 111.081 54.6133 111.749 56.2954 111.749C57.9775 111.749 59.4648 111.119 60.6493 109.958L61.3687 109.226C61.7202 109.519 62.0502 109.785 62.3098 109.991L62.829 110.387C63.0021 110.506 63.1048 110.593 63.4294 110.783C64.7383 111.505 65.9931 111.819 66.9937 112.036C67.4913 112.139 67.9185 112.21 68.2322 112.259L68.6162 112.308L68.7352 112.318H68.7839L68.811 112.329H68.8434H68.8867C68.9245 112.329 68.9083 112.335 69.103 112.34L69.3356 112.329C71.5207 112.166 73.5868 111.418 75.2851 110.116C75.9612 109.595 76.5507 108.971 77.0808 108.282C78.1246 108.624 79.2334 108.825 80.3854 108.825C85.1126 108.825 89.0933 105.77 90.5753 101.533C91.3109 101.69 92.0627 101.799 92.8361 101.799C97.4821 101.794 101.414 98.8531 102.956 94.7353L103.34 94.7733C109.332 94.7733 114.184 89.9069 114.184 83.9012C114.184 82.2357 113.957 80.3857 113.324 78.4706C117.44 74.8249 123.465 69.199 124.552 66.1392C125.077 64.6689 126.343 61.3541 127.197 60.1497C128.495 58.7283 131.886 55.5275 131.886 55.5275C139.48 48.453 130.313 28.4341 108.564 27.2351H108.57ZM103.351 88.2522C102.761 88.2522 102.204 88.1329 101.69 87.9213C101.528 87.8508 101.36 87.8236 101.192 87.7802L96.5789 82.2791C95.5621 81.0964 93.7826 80.9662 92.6036 81.9861C91.4245 83.0061 91.2893 84.791 92.3115 85.9791L97.1035 91.6918C96.7412 93.7263 94.9779 95.2779 92.8469 95.2833C91.7544 95.2833 90.7808 94.8872 90.002 94.2091C89.856 94.0789 89.6775 94.0029 89.5098 93.8999L85.2965 88.8653C84.2797 87.6826 82.5002 87.5524 81.3211 88.5723C80.1421 89.5977 80.0122 91.3771 81.0291 92.5653L84.6529 96.9217C84.6637 97.0302 84.642 97.1333 84.6583 97.2418C84.7069 97.5076 84.7286 97.7463 84.7286 97.9633C84.7286 100.367 82.7869 102.309 80.3963 102.314C79.6445 102.314 78.9576 102.124 78.3464 101.794L73.0297 96.2869C71.8939 95.2128 70.109 95.2724 69.0435 96.4063C67.978 97.5456 68.0321 99.3359 69.1625 100.41L72.2509 103.806C72.0291 104.235 71.7533 104.625 71.3368 104.951C70.7635 105.396 69.9738 105.694 69.076 105.797C68.811 105.759 68.4594 105.7 68.0321 105.597C67.5129 105.483 66.972 105.287 66.68 105.135C66.5988 105.076 66.3933 104.918 66.1012 104.68C65.8633 104.49 65.5658 104.246 65.2467 103.985C65.7064 101.983 65.1872 99.797 63.6511 98.2292C62.4774 97.0193 60.8981 96.3575 59.216 96.3575C58.3777 96.3575 57.5664 96.5257 56.8092 96.8512L56.6956 96.7535C57.7665 95.6088 58.3777 94.144 58.3939 92.5653C58.4101 90.9052 57.7827 89.3318 56.6253 88.1492C55.4516 86.9448 53.8723 86.2775 52.1956 86.2775C50.8813 86.2775 49.6319 86.7061 48.5827 87.471C49.4318 86.3914 49.9294 85.0893 49.9402 83.6951C49.9564 82.035 49.329 80.4671 48.1716 79.279C46.9925 78.0692 45.4186 77.4073 43.7365 77.4073C42.0544 77.4073 40.5671 78.0366 39.3934 79.1922L38.3495 80.2338C39.6368 77.8901 39.3393 74.89 37.3814 72.8827C36.2023 71.6783 34.6284 71.011 32.9463 71.011C31.6049 71.011 30.3393 71.4558 29.2738 72.2533C28.1488 70.1375 26.537 66.6274 23.4433 62.7538C21.6206 60.4698 19.3922 58.3432 17.5371 56.6342C16.6122 55.7825 15.7793 55.0338 15.1735 54.4696C14.8706 54.1875 14.6218 53.9487 14.465 53.7914L14.3135 53.6287H14.3081L13.8971 53.1512C13.3886 52.6738 13.01 52.1096 12.7342 51.4098C12.4638 50.7045 12.3015 49.8582 12.3015 48.8816C12.2691 45.6699 14.1459 41.1616 18.013 37.505C21.718 33.9786 27.159 31.1901 34.3147 30.6041C35.6398 31.342 37.5382 32.4216 39.5502 33.4144C40.7996 34.0329 42.0869 34.6134 43.3687 35.0691C44.6614 35.5194 45.9108 35.8774 47.3603 35.8937C47.7173 35.8937 48.058 35.8666 48.3663 35.8178H48.415C49.7942 35.5736 52.2335 35.3892 55.0568 35.3946C56.9282 35.3946 58.9781 35.4651 61.0712 35.6387H61.2226C61.7365 35.6604 62.5964 35.8449 63.6349 36.268L63.8729 36.3766C55.0947 40.3532 42.6494 48.0027 38.5604 49.3753C33.8928 50.9378 33.498 57.1876 44.0069 58.354C54.5159 59.5258 63.8566 52.8854 66.1878 51.719C67.8644 50.8781 78.5086 51.9034 84.4041 52.549C87.0056 55.126 89.2826 57.5131 90.9431 59.3197L103.897 75.1992L103.956 75.2643C105.617 77.1903 106.52 78.7581 107.028 80.0982C107.531 81.4382 107.688 82.5992 107.694 83.9121C107.694 86.3154 105.752 88.2577 103.356 88.2631L103.351 88.2522Z" fill="#333333"/>
</svg>
