<svg width="141" height="137" viewBox="0 0 141 137" fill="none" xmlns="http://www.w3.org/2000/svg">
<path d="M30.6044 17.6658C47.5764 0.141482 70.9773 28.8567 71.039 28.9324C71.039 28.9324 92.7578 1.20158 110.821 17.1405C124.589 29.2901 114.281 49.0118 100.72 65.5506H100.102V49.7401H90.3222V65.5506H74.5575V75.369H90.3222V77.1297C80.2057 87.5342 71.1074 94.8336 71.0585 94.8729V94.8797C70.9954 94.8361 2.01905 47.1909 30.6044 17.6658ZM115.86 65.5506V75.369H100.102V91.1795H90.3222V77.1297C93.7763 73.5772 97.3482 69.6621 100.72 65.5506H115.86Z" fill="#333333"/>
<path d="M124.341 115.98L109.393 104.88V109.953H16.6582V122.007H109.393V127.08L124.341 115.98Z" fill="#333333"/>
</svg>
