<svg width="141" height="137" viewBox="0 0 141 137" fill="none" xmlns="http://www.w3.org/2000/svg">
<path d="M138.14 51.1226L112.167 48.6416L118.956 57.8617L66.6217 94.2507V73.0765L13.5449 110.357L59.3874 87.0914L58.4812 113.04L124.956 66.0033L132.559 76.3271L138.14 51.1226Z" fill="#333333"/>
<path d="M38.3401 66.2172C35.9584 63.7742 34.7676 60.5219 34.7676 56.4604V24.757C34.7676 24.5395 34.8442 24.3574 34.9976 24.2056C35.1509 24.0539 35.3349 23.978 35.5547 23.978H43.221C43.4407 23.978 43.6247 24.0539 43.778 24.2056C43.9314 24.3574 44.008 24.5395 44.008 24.757V57.3708C44.008 58.7567 44.3556 59.8795 45.0558 60.7445C45.756 61.6094 46.6708 62.0393 47.8054 62.0393C48.94 62.0393 49.8447 61.6094 50.5244 60.7445C51.199 59.8795 51.5415 58.7567 51.5415 57.3708V24.757C51.5415 24.5395 51.6181 24.3574 51.7715 24.2056C51.9248 24.0539 52.1088 23.978 52.3285 23.978H59.9948C60.2146 23.978 60.3986 24.0539 60.5519 24.2056C60.7053 24.3574 60.7819 24.5395 60.7819 24.757V56.4604C60.7819 60.5219 59.5911 63.7742 57.2094 66.2172C54.8278 68.6602 51.6948 69.8792 47.8105 69.8792C43.9263 69.8792 40.7217 68.6602 38.3452 66.2172H38.3401Z" fill="#333333"/>
<path d="M92.3071 25.7393C94.2574 26.9151 95.7719 28.5542 96.8348 30.6667C97.9029 32.7791 98.4343 35.1817 98.4343 37.8745C98.4343 41.9213 97.2971 45.1587 95.028 47.5969C92.7588 50.0352 89.783 51.2517 86.1056 51.2517H80.9988C80.7703 51.2517 80.6587 51.3586 80.6587 51.5775V69.7804C80.6587 69.9992 80.5789 70.1825 80.4195 70.3352C80.2601 70.4879 80.0688 70.5643 79.8403 70.5643H71.8692C71.6406 70.5643 71.4493 70.4879 71.2899 70.3352C71.1305 70.1825 71.0508 69.9992 71.0508 69.7804V24.7619C71.0508 24.543 71.1305 24.3598 71.2899 24.2071C71.4493 24.0544 71.6406 23.978 71.8692 23.978H85.6273C88.125 23.978 90.3516 24.5634 92.3018 25.7393H92.3071ZM87.5085 42.4761C88.396 41.4122 88.837 39.9411 88.837 38.073C88.837 36.2049 88.396 34.6574 87.5085 33.5732C86.6211 32.489 85.452 31.9443 84.0012 31.9443H81.0041C80.7756 31.9443 80.664 32.0512 80.664 32.2701V43.7538C80.664 43.9726 80.7756 44.0795 81.0041 44.0795H84.0012C85.452 44.0795 86.6264 43.5451 87.5085 42.4812V42.4761Z" fill="#333333"/>
</svg>
